<svg width="18" height="18" viewBox="0 0 18 18" fill="none" xmlns="http://www.w3.org/2000/svg">
<g clip-path="url(#clip0_1227_16)">
<path d="M9.27224 11.2102C9.27224 9.82424 8.61299 8.79975 7.25099 8.41575C8.24474 7.9425 8.76299 7.2255 8.76299 6.11025C8.76299 3.91125 7.11899 3.375 5.22225 3.375H0V14.4157H5.3685C7.38149 14.4157 9.27224 13.4535 9.27224 11.2102ZM2.4345 5.25975H4.719C5.59724 5.25975 6.38774 5.50575 6.38774 6.52125C6.38774 7.45875 5.77275 7.836 4.90275 7.836H2.4345V5.25975ZM2.43375 12.5407V9.50025H5.08725C6.15899 9.50025 6.83699 9.94575 6.83699 11.0767C6.83699 12.192 6.02774 12.5407 5.037 12.5407H2.43375Z" fill="black"/>
<path d="M14.0962 14.6248C16.0117 14.6248 17.2522 13.7645 17.8492 11.936H15.9052C15.6959 12.6185 14.8334 12.9793 14.1644 12.9793C12.8737 12.9793 12.1957 12.2255 12.1957 10.9445H17.9805C18.1635 8.38104 16.7355 6.19629 14.0954 6.19629C11.6512 6.19629 9.99219 8.02779 9.99219 10.427C9.99219 12.917 11.5642 14.6248 14.0962 14.6248ZM14.0272 7.85529C15.1334 7.85529 15.6899 8.50329 15.7829 9.56304H12.1987C12.2714 8.51229 12.9712 7.85529 14.0272 7.85529Z" fill="black"/>
<path d="M11.75 3.95508H16.241V5.04258H11.75V3.95508Z" fill="black"/>
</g>
<defs>
<clipPath id="clip0_1227_16">
<rect width="18" height="18" fill="white"/>
</clipPath>
</defs>
</svg>
