<svg width="8" height="6" viewBox="0 0 8 6" fill="none" xmlns="http://www.w3.org/2000/svg">
<path d="M3.72659 5.52299C3.75717 5.56741 3.79809 5.60372 3.84582 5.62881C3.89355 5.65389 3.94667 5.667 4.00059 5.667C4.05451 5.667 4.10763 5.65389 4.15536 5.62881C4.20309 5.60372 4.24401 5.56741 4.27459 5.52299L7.27459 1.18966C7.30932 1.13968 7.32968 1.08113 7.33347 1.02039C7.33726 0.95965 7.32433 0.899031 7.29609 0.845121C7.26784 0.791211 7.22536 0.746073 7.17327 0.714609C7.12117 0.683146 7.06145 0.666561 7.00059 0.666657H1.00059C0.93987 0.666908 0.880369 0.683706 0.828483 0.715245C0.776597 0.746783 0.73429 0.79187 0.706112 0.845655C0.677934 0.89944 0.664951 0.959889 0.668559 1.0205C0.672167 1.08111 0.69223 1.13959 0.726589 1.18966L3.72659 5.52299Z" fill="white"/>
</svg>
