<svg width="18" height="18" viewBox="0 0 18 18" fill="none" xmlns="http://www.w3.org/2000/svg">
<path d="M12.9984 1.00333L10.9236 1C8.5926 1 7.08621 2.54551 7.08621 4.93758V6.75307H5.00007C4.81981 6.75307 4.67383 6.89922 4.67383 7.07949V9.70992C4.67383 9.89019 4.81997 10.0362 5.00007 10.0362H7.08621V16.6736C7.08621 16.8539 7.23219 16.9998 7.41246 16.9998H10.1343C10.3145 16.9998 10.4605 16.8537 10.4605 16.6736V10.0362H12.8997C13.08 10.0362 13.226 9.89019 13.226 9.70992L13.227 7.07949C13.227 6.99293 13.1925 6.91004 13.1314 6.84878C13.0703 6.78753 12.9871 6.75307 12.9005 6.75307H10.4605V5.21406C10.4605 4.47435 10.6368 4.09883 11.6004 4.09883L12.9981 4.09833C13.1782 4.09833 13.3242 3.95219 13.3242 3.77209V1.32957C13.3242 1.14964 13.1783 1.00366 12.9984 1.00333Z" fill="black"/>
</svg>
