<svg width="18" height="18" viewBox="0 0 18 18" fill="none" xmlns="http://www.w3.org/2000/svg">
<path d="M5.00448 6.54883H1.85742V15.9995H5.00448V6.54883Z" fill="black"/>
<path d="M15.3329 7.41259C14.6718 6.69096 13.7975 6.33008 12.7104 6.33008C12.3098 6.33008 11.9458 6.37935 11.6183 6.47795C11.2909 6.57649 11.0144 6.71474 10.7886 6.89278C10.563 7.07082 10.3833 7.23609 10.2499 7.38861C10.123 7.53347 9.99896 7.70222 9.87791 7.89312V6.54927H6.74023L6.74985 7.00708C6.7563 7.31235 6.75947 8.25323 6.75947 9.82987C6.75947 11.4066 6.75313 13.4633 6.74037 16.0001H9.87791V10.7262C9.87791 10.4021 9.91268 10.1446 9.98276 9.95373C10.1164 9.62932 10.318 9.35773 10.5884 9.13847C10.8587 8.91895 11.194 8.80929 11.5946 8.80929C12.1412 8.80929 12.5435 8.99841 12.801 9.3767C13.0585 9.75495 13.1872 10.2779 13.1872 10.9455V15.9998H16.3247V10.5833C16.3245 9.19085 15.9942 8.13399 15.3329 7.41259Z" fill="black"/>
<path d="M3.44956 2C2.92193 2 2.49441 2.15429 2.1669 2.46256C1.83942 2.7709 1.67578 3.16017 1.67578 3.63075C1.67578 4.09474 1.83471 4.48268 2.1526 4.79412C2.47039 5.1056 2.89006 5.26142 3.41138 5.26142H3.43045C3.96456 5.26142 4.39535 5.10573 4.72273 4.79412C5.05011 4.48268 5.2106 4.09487 5.20429 3.63075C5.19794 3.1602 5.03571 2.7709 4.71792 2.46256C4.40016 2.15415 3.97722 2 3.44956 2Z" fill="black"/>
</svg>
