<svg width="18" height="18" viewBox="0 0 18 18" fill="none" xmlns="http://www.w3.org/2000/svg">
<path d="M9 0C4.03735 0 0 4.03735 0 8.99991C0 13.9625 4.03735 17.9998 9 17.9998C13.9627 17.9998 18 13.9625 18 8.99991C18 4.03735 13.9627 0 9 0ZM14.8649 4.24457C15.8753 5.48827 16.4974 7.05806 16.5491 8.76928C14.6775 8.38182 12.9827 8.42729 11.4866 8.72063C11.2157 8.08712 10.9353 7.48358 10.6523 6.91317C12.2816 6.21127 13.7 5.31476 14.8649 4.24457ZM13.8511 3.21416C12.6948 4.26961 11.3547 5.05109 9.98263 5.62805C8.97553 3.78639 8.01198 2.39954 7.425 1.61141C7.93327 1.50313 8.45994 1.44504 9 1.44504C10.8455 1.44504 12.5377 2.11111 13.8511 3.21416ZM5.96551 2.08336C6.40875 2.65772 7.4645 4.09582 8.59857 6.14191C5.74837 7.07049 2.98276 7.22694 1.6538 7.24149C2.20773 4.92749 3.8282 3.02476 5.96551 2.08336ZM1.45294 8.69019C1.4672 8.69019 1.48097 8.69028 1.49552 8.69028C2.4138 8.69028 4.09621 8.62853 6.07688 8.26737C7.2069 8.06131 8.27844 7.78395 9.2839 7.44023C9.54565 7.96189 9.80585 8.51216 10.0582 9.08892C8.6503 9.54218 7.46306 10.1944 6.52262 10.8419C4.9456 11.9279 3.84082 13.1328 3.23756 13.8778C2.12064 12.5606 1.44504 10.8581 1.44504 8.99991C1.44504 8.89606 1.4487 8.79307 1.45294 8.69019ZM4.27886 14.8917C4.79821 14.2378 5.8553 13.0476 7.38445 12.0032C8.42362 11.2934 9.49873 10.766 10.6055 10.4199C11.2477 12.0844 11.796 13.9235 12.1228 15.8764C11.1703 16.3107 10.1135 16.5548 9 16.5548C7.2147 16.5548 5.57323 15.931 4.27886 14.8917ZM13.4523 15.0983C13.1154 13.3048 12.613 11.6184 12.0322 10.0772C13.4608 9.8362 14.9374 9.88591 16.4539 10.2266C16.1268 12.2197 15.0177 13.9523 13.4523 15.0983Z" fill="black"/>
</svg>
